<svg width="131" height="124" viewBox="0 0 131 124" fill="none" xmlns="http://www.w3.org/2000/svg">
<path d="M36.7414 12.5937C33.1594 9.20312 27.2234 8.33124 23.7438 11.4312L4.60547 29.5469C1.6375 32.3562 2.96797 37.0062 6.95938 37.975L10.2344 38.75C18.5242 40.7844 26.9164 36.1344 29.168 28.3844L31.2148 20.925C31.5219 19.8594 32.6477 19.2781 33.6711 19.5687C34.7969 19.8594 35.4109 20.925 35.1039 21.8937L33.3641 28.0937C36.8438 26.2531 40.8352 25.1875 45.1336 25.1875H49.9438L36.7414 12.5937Z" fill="black"/>
<path d="M94.2586 12.5937C97.8406 9.20312 103.777 8.33124 107.256 11.4312L126.292 29.5469C129.26 32.3562 127.93 37.0062 123.938 37.975L120.663 38.75C112.373 40.7844 103.981 36.1344 101.73 28.3844L99.6828 20.925C99.3758 19.8594 98.25 19.2781 97.2266 19.5687C96.2031 19.8594 95.4867 20.925 95.7938 21.8937L97.5336 28.0937C94.0539 26.2531 90.0625 25.1875 85.7641 25.1875H80.9539L94.2586 12.5937Z" fill="black"/>
<path d="M106.028 58.0281V48.2437C106.028 37.7812 96.9195 29.1594 85.8664 29.1594H45.3383C34.2852 29.1594 25.1766 37.7812 25.1766 48.2437V58.0281C22.0039 62 20.0594 67.0375 20.0594 72.5594V86.9937C20.0594 98.9094 29.168 108.887 41.2445 110.922C41.3469 110.922 41.3469 110.922 41.4492 110.922C41.7563 111.019 42.0633 111.019 42.4727 111.019C43.0867 111.116 43.7008 111.116 44.3149 111.212C44.5195 111.212 44.7242 111.212 44.8266 111.212C45.0313 111.212 45.1336 111.212 45.3383 111.212H45.85H53.5258C56.8008 113.828 60.8945 115.281 65.5 115.281C70.1055 115.281 74.1992 113.731 77.4742 111.212H85.2524H85.7641C85.9688 111.212 86.0711 111.212 86.2758 111.212C86.4805 111.212 86.6852 111.212 86.7875 111.212C87.4016 111.212 88.0156 111.116 88.6297 111.019C88.9367 111.019 89.2438 110.922 89.6531 110.922C89.7555 110.922 89.7555 110.922 89.8578 110.922C101.832 108.887 111.043 98.9094 111.043 86.9937V72.5594C111.043 67.1344 109.201 62.0969 106.028 58.0281ZM84.4336 46.2094C88.118 46.2094 91.1883 49.1156 91.1883 52.6031C91.1883 56.0906 88.118 58.9969 84.4336 58.9969C80.7492 58.9969 77.6789 56.0906 77.6789 52.6031C77.7813 49.0187 80.7492 46.2094 84.4336 46.2094ZM46.5664 46.2094C50.2508 46.2094 53.3211 49.1156 53.3211 52.6031C53.3211 56.0906 50.2508 58.9969 46.5664 58.9969C42.882 58.9969 39.8117 56.0906 39.8117 52.6031C39.9141 49.0187 42.882 46.2094 46.5664 46.2094ZM65.5 111.309C57.9266 111.309 51.5813 105.691 51.1719 98.425C55.8797 98.425 60.2805 96.875 63.7602 94.0656V104.334C63.7602 105.303 64.4766 106.078 65.6024 106.078C66.7281 106.078 67.4445 105.4 67.4445 104.334V94.0656C70.9242 96.7781 75.325 98.425 80.0328 98.425C79.4188 105.594 73.0734 111.309 65.5 111.309ZM99.9898 78.6625C99.9898 88.1562 91.8024 95.9062 81.7727 95.9062C74.7109 95.9062 68.6727 92.1281 65.6024 86.5094C62.532 92.0312 56.4938 95.9062 49.432 95.9062C39.4024 95.9062 31.2149 88.1562 31.2149 78.6625V73.0437C31.2149 71.9781 32.0336 71.1062 33.2617 71.1062C34.4899 71.1062 35.3086 71.8812 35.3086 73.0437V78.6625C35.3086 86.025 41.6539 92.0312 49.432 92.0312C56.5961 92.0312 62.4297 86.9937 63.4531 80.4062C63.3508 80.3094 63.3508 80.3094 63.2484 80.2125L55.0609 68.4906C53.9352 66.9406 55.2656 65.1 57.4149 65.1H73.7898C75.8367 65.1 77.1672 66.9406 76.1438 68.4906L67.9563 80.2125C67.9563 80.3094 67.8539 80.3094 67.7516 80.4062C68.775 86.9937 74.6086 92.0312 81.7727 92.0312C89.5508 92.0312 95.8961 86.025 95.8961 78.6625V73.0437C95.8961 71.9781 96.7148 71.1062 97.943 71.1062C99.1711 71.1062 99.9898 71.8812 99.9898 73.0437V78.6625Z" fill="black"/>
</svg>
