<svg width="26" height="25" viewBox="0 0 26 25" fill="none" xmlns="http://www.w3.org/2000/svg">
<path d="M3.01159 16.7894C4.78097 18.4842 7.13723 19.5016 9.63648 19.65C12.1357 19.7984 14.6054 19.0674 16.5803 17.5948L23.3755 24.0946C23.6165 24.3172 23.9393 24.4404 24.2743 24.4376C24.6094 24.4348 24.9298 24.3063 25.1667 24.0797C25.4037 23.8531 25.538 23.5465 25.541 23.2261C25.5439 22.9056 25.4151 22.5969 25.1823 22.3664L18.3871 15.8666C19.9949 13.8929 20.7551 11.4069 20.5125 8.91552C20.27 6.42417 19.043 4.11515 17.0818 2.45937C15.1206 0.80359 12.573 -0.0742346 9.95843 0.00492348C7.34388 0.0840815 4.85937 1.11426 3.01159 2.88536C2.05683 3.79814 1.29944 4.88192 0.782706 6.07477C0.265967 7.26762 0 8.54616 0 9.83736C0 11.1286 0.265967 12.4071 0.782706 13.6C1.29944 14.7928 2.05683 15.8766 3.01159 16.7894ZM4.81837 4.61603C6.08154 3.4078 7.74361 2.65588 9.52139 2.48838C11.2992 2.32088 13.0827 2.74817 14.568 3.69743C16.0534 4.6467 17.1487 6.05922 17.6673 7.69434C18.186 9.32945 18.0959 11.086 17.4124 12.6647C16.7289 14.2434 15.4942 15.5465 13.9189 16.3522C12.3435 17.1578 10.5248 17.416 8.77273 17.0828C7.02064 16.7497 5.44351 15.8457 4.31006 14.525C3.17661 13.2043 2.55697 11.5485 2.5567 9.83981C2.55319 8.86884 2.75131 7.90688 3.13955 7.00973C3.5278 6.11258 4.09844 5.29811 4.81837 4.61358V4.61603Z" fill="white"/>
</svg>
