<svg width="216" height="71" viewBox="0 0 216 71" fill="none" xmlns="http://www.w3.org/2000/svg">
<path d="M21.0351 7.21099C18.9843 5.26958 15.5859 4.77036 13.5937 6.54536L2.63667 16.918C0.937454 18.5266 1.69917 21.1891 3.98433 21.7438L5.85933 22.1875C10.6054 23.3524 15.4101 20.6899 16.6992 16.2524L17.871 11.9813C18.0468 11.3711 18.6914 11.0383 19.2773 11.2047C19.9218 11.3711 20.2734 11.9813 20.0976 12.536L19.1015 16.086C21.0937 15.0321 23.3789 14.4219 25.8398 14.4219H28.5937L21.0351 7.21099Z" fill="#23C28D"/>
<path d="M53.9648 7.21099C56.0156 5.26958 59.4141 4.77036 61.4063 6.54536L72.3047 16.918C74.0039 18.5266 73.2422 21.1891 70.957 21.7438L69.082 22.1875C64.3359 23.3524 59.5312 20.6899 58.2422 16.2524L57.0703 11.9813C56.8945 11.3711 56.25 11.0383 55.6641 11.2047C55.0781 11.3711 54.668 11.9813 54.8437 12.536L55.8398 16.086C53.8477 15.0321 51.5625 14.4219 49.1016 14.4219H46.3477L53.9648 7.21099Z" fill="#23C28D"/>
<path d="M60.7031 33.2257V27.6234C60.7031 21.6328 55.4883 16.696 49.1602 16.696H25.957C19.6289 16.696 14.4141 21.6328 14.4141 27.6234V33.2257C12.5977 35.5 11.4844 38.3843 11.4844 41.546V49.8109C11.4844 56.6335 16.6992 62.3468 23.6133 63.5117C23.6719 63.5117 23.6719 63.5117 23.7305 63.5117C23.9062 63.5671 24.082 63.5671 24.3164 63.5671C24.668 63.6226 25.0195 63.6226 25.3711 63.6781C25.4883 63.6781 25.6055 63.6781 25.6641 63.6781C25.7812 63.6781 25.8398 63.6781 25.957 63.6781H26.25H30.6445C32.5195 65.1757 34.8633 66.0078 37.5 66.0078C40.1367 66.0078 42.4805 65.1203 44.3555 63.6781H48.8086H49.1016C49.2188 63.6781 49.2773 63.6781 49.3945 63.6781C49.5117 63.6781 49.6289 63.6781 49.6875 63.6781C50.0391 63.6781 50.3906 63.6226 50.7422 63.5671C50.918 63.5671 51.0937 63.5117 51.3281 63.5117C51.3867 63.5117 51.3867 63.5117 51.4453 63.5117C58.3008 62.3468 63.5742 56.6335 63.5742 49.8109V41.546C63.5742 38.4398 62.5195 35.5554 60.7031 33.2257ZM48.3398 26.4585C50.4492 26.4585 52.207 28.1226 52.207 30.1195C52.207 32.1164 50.4492 33.7804 48.3398 33.7804C46.2305 33.7804 44.4727 32.1164 44.4727 30.1195C44.5312 28.0671 46.2305 26.4585 48.3398 26.4585ZM26.6602 26.4585C28.7695 26.4585 30.5273 28.1226 30.5273 30.1195C30.5273 32.1164 28.7695 33.7804 26.6602 33.7804C24.5508 33.7804 22.793 32.1164 22.793 30.1195C22.8516 28.0671 24.5508 26.4585 26.6602 26.4585ZM37.5 63.7335C33.1641 63.7335 29.5312 60.5164 29.2969 56.3562C31.9922 56.3562 34.5117 55.4687 36.5039 53.8601V59.7398C36.5039 60.2945 36.9141 60.7382 37.5586 60.7382C38.2031 60.7382 38.6133 60.3499 38.6133 59.7398V53.8601C40.6055 55.4132 43.125 56.3562 45.8203 56.3562C45.4687 60.4609 41.8359 63.7335 37.5 63.7335ZM57.2461 45.0406C57.2461 50.4765 52.5586 54.914 46.8164 54.914C42.7734 54.914 39.3164 52.7507 37.5586 49.5335C35.8008 52.6953 32.3437 54.914 28.3008 54.914C22.5586 54.914 17.8711 50.4765 17.8711 45.0406V41.8234C17.8711 41.2132 18.3398 40.714 19.043 40.714C19.7461 40.714 20.2148 41.1578 20.2148 41.8234V45.0406C20.2148 49.2562 23.8477 52.6953 28.3008 52.6953C32.4023 52.6953 35.7422 49.8109 36.3281 46.039C36.2695 45.9835 36.2695 45.9835 36.2109 45.9281L31.5234 39.2164C30.8789 38.3289 31.6406 37.275 32.8711 37.275H42.2461C43.418 37.275 44.1797 38.3289 43.5938 39.2164L38.9062 45.9281C38.9062 45.9835 38.8477 45.9835 38.7891 46.039C39.375 49.8109 42.7148 52.6953 46.8164 52.6953C51.2695 52.6953 54.9023 49.2562 54.9023 45.0406V41.8234C54.9023 41.2132 55.3711 40.714 56.0742 40.714C56.7773 40.714 57.2461 41.1578 57.2461 41.8234V45.0406Z" fill="#23C28D"/>
<path d="M89.0547 38.8633H81.8086V34.293H89.0547C90.1745 34.293 91.0859 34.1107 91.7891 33.7461C92.4922 33.3685 93.0065 32.8477 93.332 32.1836C93.6576 31.5195 93.8203 30.7708 93.8203 29.9375C93.8203 29.0911 93.6576 28.3034 93.332 27.5742C93.0065 26.8451 92.4922 26.2591 91.7891 25.8164C91.0859 25.3737 90.1745 25.1523 89.0547 25.1523H83.8398V49H77.9805V20.5625H89.0547C91.2812 20.5625 93.1888 20.9661 94.7773 21.7734C96.3789 22.5677 97.6029 23.668 98.4492 25.0742C99.2956 26.4805 99.7188 28.0885 99.7188 29.8984C99.7188 31.7344 99.2956 33.3229 98.4492 34.6641C97.6029 36.0052 96.3789 37.0404 94.7773 37.7695C93.1888 38.4987 91.2812 38.8633 89.0547 38.8633ZM112.863 49.3906C111.223 49.3906 109.751 49.1302 108.449 48.6094C107.147 48.0755 106.04 47.3398 105.129 46.4023C104.23 45.4648 103.54 44.3776 103.059 43.1406C102.577 41.8906 102.336 40.5625 102.336 39.1562V38.375C102.336 36.7734 102.564 35.3086 103.02 33.9805C103.475 32.6523 104.126 31.5 104.973 30.5234C105.832 29.5469 106.874 28.7982 108.098 28.2773C109.322 27.7435 110.702 27.4766 112.238 27.4766C113.736 27.4766 115.064 27.724 116.223 28.2188C117.382 28.7135 118.352 29.4167 119.133 30.3281C119.927 31.2396 120.526 32.3333 120.93 33.6094C121.333 34.8724 121.535 36.2786 121.535 37.8281V40.1719H104.738V36.4219H116.008V35.9922C116.008 35.2109 115.865 34.5143 115.578 33.9023C115.305 33.2773 114.888 32.7826 114.328 32.418C113.768 32.0534 113.052 31.8711 112.18 31.8711C111.438 31.8711 110.799 32.0339 110.266 32.3594C109.732 32.6849 109.296 33.1406 108.957 33.7266C108.632 34.3125 108.384 35.0026 108.215 35.7969C108.059 36.5781 107.98 37.4375 107.98 38.375V39.1562C107.98 40.0026 108.098 40.7839 108.332 41.5C108.579 42.2161 108.924 42.8346 109.367 43.3555C109.823 43.8763 110.37 44.2799 111.008 44.5664C111.659 44.8529 112.395 44.9961 113.215 44.9961C114.23 44.9961 115.174 44.8008 116.047 44.4102C116.932 44.0065 117.694 43.401 118.332 42.5938L121.066 45.5625C120.624 46.2005 120.018 46.8125 119.25 47.3984C118.495 47.9844 117.583 48.4661 116.516 48.8438C115.448 49.2083 114.23 49.3906 112.863 49.3906ZM135.09 27.8672V31.8516H122.785V27.8672H135.09ZM125.832 22.6523H131.457V42.6328C131.457 43.2448 131.535 43.7135 131.691 44.0391C131.861 44.3646 132.108 44.5924 132.434 44.7227C132.759 44.8398 133.169 44.8984 133.664 44.8984C134.016 44.8984 134.328 44.8854 134.602 44.8594C134.888 44.8203 135.129 44.7812 135.324 44.7422L135.344 48.8828C134.862 49.0391 134.341 49.1628 133.781 49.2539C133.221 49.3451 132.603 49.3906 131.926 49.3906C130.689 49.3906 129.608 49.1888 128.684 48.7852C127.772 48.3685 127.069 47.7044 126.574 46.793C126.079 45.8815 125.832 44.6836 125.832 43.1992V22.6523ZM153.449 41.5586C153.449 41.0508 153.371 40.5951 153.215 40.1914C153.072 39.7747 152.798 39.3971 152.395 39.0586C151.991 38.707 151.424 38.362 150.695 38.0234C149.966 37.6849 149.022 37.3333 147.863 36.9688C146.574 36.5521 145.35 36.0833 144.191 35.5625C143.046 35.0417 142.03 34.4362 141.145 33.7461C140.272 33.043 139.582 32.2292 139.074 31.3047C138.579 30.3802 138.332 29.306 138.332 28.082C138.332 26.8971 138.592 25.8229 139.113 24.8594C139.634 23.8828 140.363 23.0495 141.301 22.3594C142.238 21.6562 143.345 21.1159 144.621 20.7383C145.91 20.3607 147.323 20.1719 148.859 20.1719C150.956 20.1719 152.785 20.5495 154.348 21.3047C155.91 22.0599 157.121 23.0951 157.98 24.4102C158.853 25.7253 159.289 27.2292 159.289 28.9219H153.469C153.469 28.0885 153.293 27.3594 152.941 26.7344C152.603 26.0964 152.082 25.5951 151.379 25.2305C150.689 24.8659 149.816 24.6836 148.762 24.6836C147.746 24.6836 146.9 24.8398 146.223 25.1523C145.546 25.4518 145.038 25.862 144.699 26.3828C144.361 26.8906 144.191 27.4635 144.191 28.1016C144.191 28.5833 144.309 29.0195 144.543 29.4102C144.79 29.8008 145.155 30.1654 145.637 30.5039C146.118 30.8424 146.711 31.1615 147.414 31.4609C148.117 31.7604 148.931 32.0534 149.855 32.3398C151.405 32.8086 152.766 33.3359 153.938 33.9219C155.122 34.5078 156.112 35.1654 156.906 35.8945C157.701 36.6237 158.299 37.4505 158.703 38.375C159.107 39.2995 159.309 40.3477 159.309 41.5195C159.309 42.7565 159.068 43.8633 158.586 44.8398C158.104 45.8164 157.408 46.6432 156.496 47.3203C155.585 47.9974 154.497 48.5117 153.234 48.8633C151.971 49.2148 150.559 49.3906 148.996 49.3906C147.59 49.3906 146.203 49.2083 144.836 48.8438C143.469 48.4661 142.225 47.8997 141.105 47.1445C139.999 46.3893 139.113 45.4258 138.449 44.2539C137.785 43.082 137.453 41.6953 137.453 40.0938H143.332C143.332 40.9792 143.469 41.7279 143.742 42.3398C144.016 42.9518 144.4 43.4466 144.895 43.8242C145.402 44.2018 146.001 44.4753 146.691 44.6445C147.395 44.8138 148.163 44.8984 148.996 44.8984C150.012 44.8984 150.845 44.7552 151.496 44.4688C152.16 44.1823 152.648 43.7852 152.961 43.2773C153.286 42.7695 153.449 42.1966 153.449 41.5586ZM173.293 27.8672V31.8516H160.988V27.8672H173.293ZM164.035 22.6523H169.66V42.6328C169.66 43.2448 169.738 43.7135 169.895 44.0391C170.064 44.3646 170.311 44.5924 170.637 44.7227C170.962 44.8398 171.372 44.8984 171.867 44.8984C172.219 44.8984 172.531 44.8854 172.805 44.8594C173.091 44.8203 173.332 44.7812 173.527 44.7422L173.547 48.8828C173.065 49.0391 172.544 49.1628 171.984 49.2539C171.424 49.3451 170.806 49.3906 170.129 49.3906C168.892 49.3906 167.811 49.1888 166.887 48.7852C165.975 48.3685 165.272 47.7044 164.777 46.793C164.283 45.8815 164.035 44.6836 164.035 43.1992V22.6523ZM187.902 44.2344V34.8203C187.902 34.1432 187.792 33.5638 187.57 33.082C187.349 32.5872 187.004 32.2031 186.535 31.9297C186.079 31.6562 185.487 31.5195 184.758 31.5195C184.133 31.5195 183.592 31.6302 183.137 31.8516C182.681 32.0599 182.329 32.3659 182.082 32.7695C181.835 33.1602 181.711 33.6224 181.711 34.1562H176.086C176.086 33.2578 176.294 32.4049 176.711 31.5977C177.128 30.7904 177.733 30.0807 178.527 29.4688C179.322 28.8438 180.266 28.3555 181.359 28.0039C182.466 27.6523 183.703 27.4766 185.07 27.4766C186.711 27.4766 188.169 27.75 189.445 28.2969C190.721 28.8438 191.724 29.6641 192.453 30.7578C193.195 31.8516 193.566 33.2188 193.566 34.8594V43.9023C193.566 45.0612 193.638 46.0117 193.781 46.7539C193.924 47.4831 194.133 48.1211 194.406 48.668V49H188.723C188.449 48.4271 188.241 47.7109 188.098 46.8516C187.967 45.9792 187.902 45.1068 187.902 44.2344ZM188.645 36.1289L188.684 39.3125H185.539C184.797 39.3125 184.152 39.3971 183.605 39.5664C183.059 39.7357 182.609 39.9766 182.258 40.2891C181.906 40.5885 181.646 40.9401 181.477 41.3438C181.32 41.7474 181.242 42.1901 181.242 42.6719C181.242 43.1536 181.353 43.5898 181.574 43.9805C181.796 44.3581 182.115 44.6576 182.531 44.8789C182.948 45.0872 183.436 45.1914 183.996 45.1914C184.842 45.1914 185.578 45.0221 186.203 44.6836C186.828 44.3451 187.31 43.9284 187.648 43.4336C188 42.9388 188.182 42.4701 188.195 42.0273L189.68 44.4102C189.471 44.944 189.185 45.4974 188.82 46.0703C188.469 46.6432 188.02 47.1836 187.473 47.6914C186.926 48.1862 186.268 48.5964 185.5 48.9219C184.732 49.2344 183.82 49.3906 182.766 49.3906C181.424 49.3906 180.207 49.1237 179.113 48.5898C178.033 48.043 177.173 47.2943 176.535 46.3438C175.91 45.3802 175.598 44.2865 175.598 43.0625C175.598 41.9557 175.806 40.9727 176.223 40.1133C176.639 39.2539 177.251 38.5312 178.059 37.9453C178.879 37.3464 179.901 36.8971 181.125 36.5977C182.349 36.2852 183.768 36.1289 185.383 36.1289H188.645ZM203.859 46.6172L209.465 27.8672H215.5L207.004 52.1836C206.822 52.7174 206.574 53.2904 206.262 53.9023C205.962 54.5143 205.552 55.0938 205.031 55.6406C204.523 56.2005 203.879 56.6562 203.098 57.0078C202.329 57.3594 201.385 57.5352 200.266 57.5352C199.732 57.5352 199.296 57.5026 198.957 57.4375C198.618 57.3724 198.215 57.2812 197.746 57.1641V53.043C197.889 53.043 198.039 53.043 198.195 53.043C198.352 53.056 198.501 53.0625 198.645 53.0625C199.387 53.0625 199.992 52.9779 200.461 52.8086C200.93 52.6393 201.307 52.3789 201.594 52.0273C201.88 51.6888 202.108 51.2461 202.277 50.6992L203.859 46.6172ZM201.516 27.8672L206.105 43.1797L206.906 49.1367L203.078 49.5469L195.48 27.8672H201.516Z" fill="#23C28D"/>
</svg>
