<svg width="26" height="31" viewBox="0 0 26 31" fill="none" xmlns="http://www.w3.org/2000/svg">
<path d="M12.8026 0.1875C5.96823 0.1875 0.425964 5.34344 0.425964 11.7025C0.425964 18.0616 12.8026 30.8125 12.8026 30.8125C12.8026 30.8125 25.1793 18.0616 25.1793 11.7025C25.1793 5.34344 19.637 0.1875 12.8026 0.1875ZM12.8026 6.58594C13.8966 6.58594 14.9458 6.99011 15.7196 7.7096C16.4933 8.42909 16.9284 9.40501 16.929 10.4228C16.929 11.441 16.4942 12.4175 15.7204 13.1374C14.9466 13.8574 13.897 14.2619 12.8026 14.2619C11.7082 14.2619 10.6587 13.8574 9.88482 13.1374C9.11098 12.4175 8.67624 11.441 8.67624 10.4228C8.67686 9.40501 9.11188 8.42909 9.88565 7.7096C10.6594 6.99011 11.7086 6.58594 12.8026 6.58594Z" fill="#C22358"/>
</svg>
