<svg width="35" height="35" viewBox="0 0 35 35" fill="none" xmlns="http://www.w3.org/2000/svg">
<path d="M32.8125 16.0425H3.64581V3.74876C3.64581 2.91751 4.41875 2.18832 5.301 2.18832H8.34894C9.20938 2.18832 9.90206 2.88832 9.90938 3.74145C8.4875 4.09876 7.29169 5.41126 7.29169 6.79663V8.75082C7.29169 9.15189 7.61981 9.48001 8.02088 9.48001H13.125C13.5261 9.48001 13.8542 9.15189 13.8542 8.75082V6.7967C13.8542 5.38939 12.7386 4.09876 11.3678 3.74876C11.3678 2.08626 10.0188 0.730011 8.349 0.730011H5.30106C3.61669 0.730011 2.1875 2.11545 2.1875 3.74876V16.0425C0.984375 16.0352 0.00731445 17.0123 0 18.2155C0 18.8425 0.2625 19.4331 0.729189 19.8488V23.6696C0.729189 26.6373 2.049 29.1821 4.18544 30.8373L2.98963 33.2143C2.80731 33.5716 2.95319 34.0091 3.31775 34.1914C3.67507 34.3737 4.11257 34.2278 4.29481 33.8633L5.41775 31.6247C6.89069 32.4122 8.53856 32.8205 10.2084 32.8059H24.7917C26.4615 32.8205 28.1094 32.4122 29.5823 31.6247L30.7053 33.8633C30.8876 34.2206 31.3251 34.3664 31.6823 34.1914C32.0396 34.0164 32.1854 33.5716 32.0104 33.2143L30.8146 30.8299C32.9511 29.182 34.2709 26.6299 34.2709 23.6623V19.8414C34.7303 19.4404 35.0001 18.8498 35.0001 18.23C35 17.0196 34.0229 16.0425 32.8125 16.0425ZM10.6386 5.10501C11.5063 5.10501 12.3959 5.95814 12.3959 6.7967V8.0217H8.75V6.7967C8.75 5.98733 9.73438 5.10501 10.6386 5.10501ZM32.8125 23.6696C32.8125 28.052 29.3636 31.3551 24.7917 31.3551H10.2083C5.63644 31.355 2.1875 28.0519 2.1875 23.6696V20.4176H32.8125V23.6696ZM32.8125 18.9592H2.20937C1.84481 18.9592 1.51669 18.6967 1.46563 18.3394C1.4 17.8873 1.75 17.5008 2.1875 17.5008H32.7906C33.1552 17.5008 33.4833 17.7633 33.5344 18.1206C33.6 18.5728 33.25 18.9592 32.8125 18.9592Z" fill="black"/>
</svg>
