<svg width="24" height="27" viewBox="0 0 24 27" fill="none" xmlns="http://www.w3.org/2000/svg">
<path d="M2.38982 2.5625H21.5592C22.7392 2.5625 23.6892 3.53812 23.6892 4.75V10.2188H0.259888V4.75C0.259888 3.53812 1.20984 2.5625 2.38982 2.5625Z" fill="#C22358"/>
<path d="M0.259888 9.125V24.4375C0.259888 25.6494 1.20984 26.625 2.38982 26.625H21.5592C22.7392 26.625 23.6892 25.6494 23.6892 24.4375V9.125H0.259888Z" fill="#E9EDED"/>
<path d="M6.64971 1.46875C6.64971 0.864689 6.17291 0.375 5.58474 0.375C4.99658 0.375 4.51978 0.864689 4.51978 1.46875V5.84375C4.51978 6.44781 4.99658 6.9375 5.58474 6.9375C6.17291 6.9375 6.64971 6.44781 6.64971 5.84375V1.46875Z" fill="#34485C"/>
<path d="M19.4293 1.46875C19.4293 0.864689 18.9525 0.375 18.3643 0.375C17.7762 0.375 17.2994 0.864689 17.2994 1.46875V5.84375C17.2994 6.44781 17.7762 6.9375 18.3643 6.9375C18.9525 6.9375 19.4293 6.44781 19.4293 5.84375V1.46875Z" fill="#34485C"/>
<path d="M19.4293 11.3125H17.2994V13.5H19.4293V11.3125Z" fill="#CAD1D8"/>
<path d="M15.1694 11.3125H13.0395V13.5H15.1694V11.3125Z" fill="#CAD1D8"/>
<path d="M10.9095 11.3125H8.7796V13.5H10.9095V11.3125Z" fill="#CAD1D8"/>
<path d="M6.64971 11.3125H4.51978V13.5H6.64971V11.3125Z" fill="#CAD1D8"/>
<path d="M19.4293 15.6875H17.2994V17.875H19.4293V15.6875Z" fill="#CAD1D8"/>
<path d="M15.1694 15.6875H13.0395V17.875H15.1694V15.6875Z" fill="#CAD1D8"/>
<path d="M10.9095 15.6875H8.7796V17.875H10.9095V15.6875Z" fill="#CAD1D8"/>
<path d="M6.64971 15.6875H4.51978V17.875H6.64971V15.6875Z" fill="#CAD1D8"/>
<path d="M15.1694 20.0625H13.0395V22.25H15.1694V20.0625Z" fill="#CAD1D8"/>
<path d="M10.9095 20.0625H8.7796V22.25H10.9095V20.0625Z" fill="#CAD1D8"/>
<path d="M6.64971 20.0625H4.51978V22.25H6.64971V20.0625Z" fill="#CAD1D8"/>
</svg>
