<svg width="33" height="33" viewBox="0 0 33 33" fill="none" xmlns="http://www.w3.org/2000/svg">
<path d="M13.366 16.3491C13.2372 16.1842 13.1583 15.9857 13.1388 15.7773C13.1194 15.5689 13.1601 15.3593 13.2562 15.1734C13.3524 14.9874 13.4998 14.833 13.6811 14.7283C13.8624 14.6237 14.0699 14.5733 14.279 14.5831H17.8052C18.0143 14.5733 18.2218 14.6237 18.4031 14.7283C18.5844 14.833 18.7318 14.9874 18.8279 15.1734C18.9241 15.3593 18.9648 15.5689 18.9453 15.7773C18.9259 15.9857 18.847 16.1842 18.7181 16.3491L16.955 18.5366C16.8435 18.6704 16.7039 18.778 16.5461 18.8519C16.3884 18.9258 16.2163 18.9641 16.0421 18.9641C15.8679 18.9641 15.6958 18.9258 15.5381 18.8519C15.3803 18.778 15.2407 18.6704 15.1292 18.5366L13.366 16.3491ZM0.0747965 20.8772C0.0142336 20.6955 -0.00992873 20.5036 0.00368986 20.3125C0.0173084 20.1214 0.0684411 19.9349 0.154167 19.7636C0.239892 19.5923 0.358531 19.4395 0.503305 19.3141C0.648079 19.1886 0.816152 19.0929 0.997922 19.0324L1.5273 18.856C1.48646 18.4083 1.45875 17.9576 1.45875 17.4997V1.45806C1.4588 1.19994 1.52736 0.946454 1.65742 0.723497C1.78749 0.500541 1.9744 0.3161 2.19906 0.189012C2.42373 0.0619243 2.6781 -0.00325712 2.9362 0.000125243C3.1943 0.00350761 3.44687 0.0753326 3.66813 0.208264L10.2627 4.16326C12.0619 3.29182 14.0437 2.86426 16.0421 2.91639C18.0409 2.86459 20.0231 3.29213 21.8229 4.16326L28.416 0.208264C28.6373 0.0753326 28.8899 0.00350761 29.148 0.000125243C29.4061 -0.00325712 29.6605 0.0619243 29.8851 0.189012C30.1098 0.3161 30.2967 0.500541 30.4268 0.723497C30.5568 0.946454 30.6254 1.19994 30.6254 1.45806V17.4997C30.6254 17.9576 30.5977 18.4083 30.5569 18.856L31.0863 19.0324C31.4537 19.1546 31.7575 19.4178 31.9309 19.7641C32.1043 20.1103 32.1331 20.5112 32.0108 20.8787C31.8886 21.2461 31.6254 21.5499 31.2792 21.7233C30.933 21.8967 30.532 21.9255 30.1646 21.8033L29.991 21.7449C29.5366 23.2272 28.8473 24.627 27.9494 25.891L28.7383 26.6799C29.004 26.955 29.151 27.3234 29.1477 27.7057C29.1443 28.0881 28.991 28.4539 28.7206 28.7242C28.4502 28.9946 28.0844 29.148 27.7021 29.1513C27.3197 29.1546 26.9513 29.0077 26.6763 28.742L26.0317 28.0974C23.3357 30.6574 19.7598 32.0847 16.0421 32.0847C12.3243 32.0847 8.74847 30.6574 6.05251 28.0974L5.40792 28.742C5.13288 29.0077 4.7645 29.1546 4.38213 29.1513C3.99976 29.148 3.63399 28.9946 3.3636 28.7242C3.09322 28.4539 2.93984 28.0881 2.93652 27.7057C2.9332 27.3234 3.08019 26.955 3.34584 26.6799L4.1348 25.891C3.2369 24.627 2.54759 23.2272 2.09313 21.7449C0.961463 22.0541 0.312505 21.5831 0.0747965 20.8772ZM4.39584 17.8993L9.74792 16.1158C10.1154 15.9935 10.5163 16.0223 10.8625 16.1957C11.2088 16.3691 11.472 16.6729 11.5942 17.0403C11.7164 17.4078 11.6876 17.8087 11.5143 18.155C11.3409 18.5012 11.037 18.7644 10.6696 18.8866L4.8625 20.8189C5.17654 21.8687 5.63757 22.8689 6.23188 23.7895L10.636 19.3853C10.9111 19.1197 11.2795 18.9727 11.6618 18.976C12.0442 18.9794 12.41 19.1327 12.6804 19.4031C12.9508 19.6735 13.1041 20.0393 13.1074 20.4216C13.1108 20.804 12.9638 21.1724 12.6981 21.4474L8.11313 26.0324C10.2623 28.0461 13.097 29.1666 16.0421 29.1666C18.9872 29.1666 21.8219 28.0461 23.971 26.0324L19.386 21.4474C19.1204 21.1724 18.9734 20.804 18.9767 20.4216C18.9801 20.0393 19.1334 19.6735 19.4038 19.4031C19.6742 19.1327 20.04 18.9794 20.4223 18.976C20.8047 18.9727 21.1731 19.1197 21.4481 19.3853L25.8523 23.7895C26.4466 22.8689 26.9076 21.8687 27.2217 20.8189L21.4146 18.8837C21.0472 18.7615 20.7433 18.4983 20.5699 18.152C20.3965 17.8058 20.3678 17.4049 20.49 17.0374C20.6122 16.67 20.8754 16.3662 21.2216 16.1928C21.5679 16.0194 21.9688 15.9906 22.3363 16.1128L27.6883 17.8964C27.6883 17.7637 27.7088 17.6324 27.7088 17.4968V4.03347L22.6265 7.08285C22.4072 7.21508 22.157 7.28726 21.901 7.29212C21.645 7.29699 21.3923 7.23436 21.1681 7.11056C19.6102 6.21964 17.8359 5.77747 16.0421 5.83306C14.2468 5.77666 12.4709 6.21885 10.9117 7.11056C10.6876 7.23436 10.4348 7.29699 10.1788 7.29212C9.9228 7.28726 9.67259 7.21508 9.45334 7.08285L4.37542 4.03347V17.4997C4.37542 17.6353 4.39146 17.7666 4.39584 17.8993Z" fill="black"/>
</svg>
