<svg width="131" height="124" viewBox="0 0 131 124" fill="none" xmlns="http://www.w3.org/2000/svg">
<path d="M36.7414 12.5939C33.1594 9.20324 27.2234 8.33136 23.7437 11.4314L4.60546 29.547C1.63749 32.3564 2.96796 37.0064 6.95936 37.9751L10.2344 38.7501C18.5242 40.7845 26.9164 36.1345 29.168 28.3845L31.2148 20.9251C31.5219 19.8595 32.6476 19.2782 33.6711 19.5689C34.7969 19.8595 35.4109 20.9251 35.1039 21.8939L33.364 28.0939C36.8437 26.2532 40.8351 25.1876 45.1336 25.1876H49.9437L36.7414 12.5939Z" fill="#23C28D"/>
<path d="M94.2585 12.5939C97.8406 9.20324 103.777 8.33136 107.256 11.4314L126.292 29.547C129.26 32.3564 127.93 37.0064 123.938 37.9751L120.663 38.7501C112.373 40.7845 103.981 36.1345 101.73 28.3845L99.6828 20.9251C99.3757 19.8595 98.25 19.2782 97.2265 19.5689C96.2031 19.8595 95.4867 20.9251 95.7937 21.8939L97.5335 28.0939C94.0539 26.2532 90.0625 25.1876 85.764 25.1876H80.9539L94.2585 12.5939Z" fill="#23C28D"/>
<path d="M106.028 58.0282V48.2438C106.028 37.7813 96.9195 29.1594 85.8664 29.1594H45.3382C34.2851 29.1594 25.1765 37.7813 25.1765 48.2438V58.0282C22.0039 62 20.0593 67.0375 20.0593 72.5594V86.9938C20.0593 98.9094 29.1679 108.888 41.2445 110.922C41.3468 110.922 41.3468 110.922 41.4492 110.922C41.7562 111.019 42.0632 111.019 42.4726 111.019C43.0867 111.116 43.7007 111.116 44.3148 111.213C44.5195 111.213 44.7242 111.213 44.8265 111.213C45.0312 111.213 45.1335 111.213 45.3382 111.213H45.8499H53.5257C56.8007 113.828 60.8945 115.281 65.4999 115.281C70.1054 115.281 74.1992 113.731 77.4742 111.213H85.2523H85.764C85.9687 111.213 86.071 111.213 86.2757 111.213C86.4804 111.213 86.6851 111.213 86.7874 111.213C87.4015 111.213 88.0156 111.116 88.6296 111.019C88.9367 111.019 89.2437 110.922 89.6531 110.922C89.7554 110.922 89.7554 110.922 89.8578 110.922C101.832 108.888 111.043 98.9094 111.043 86.9938V72.5594C111.043 67.1344 109.201 62.0969 106.028 58.0282ZM84.4335 46.2094C88.1179 46.2094 91.1882 49.1157 91.1882 52.6032C91.1882 56.0907 88.1179 58.9969 84.4335 58.9969C80.7492 58.9969 77.6789 56.0907 77.6789 52.6032C77.7812 49.0188 80.7492 46.2094 84.4335 46.2094ZM46.5664 46.2094C50.2507 46.2094 53.321 49.1157 53.321 52.6032C53.321 56.0907 50.2507 58.9969 46.5664 58.9969C42.882 58.9969 39.8117 56.0907 39.8117 52.6032C39.914 49.0188 42.882 46.2094 46.5664 46.2094ZM65.4999 111.309C57.9265 111.309 51.5812 105.691 51.1718 98.425C55.8796 98.425 60.2804 96.875 63.7601 94.0657V104.334C63.7601 105.303 64.4765 106.078 65.6023 106.078C66.7281 106.078 67.4445 105.4 67.4445 104.334V94.0657C70.9242 96.7782 75.3249 98.425 80.0328 98.425C79.4187 105.594 73.0734 111.309 65.4999 111.309ZM99.9898 78.6625C99.9898 88.1563 91.8023 95.9063 81.7726 95.9063C74.7109 95.9063 68.6726 92.1282 65.6023 86.5094C62.532 92.0313 56.4937 95.9063 49.432 95.9063C39.4023 95.9063 31.2148 88.1563 31.2148 78.6625V73.0438C31.2148 71.9782 32.0335 71.1063 33.2617 71.1063C34.4898 71.1063 35.3085 71.8813 35.3085 73.0438V78.6625C35.3085 86.025 41.6539 92.0313 49.432 92.0313C56.596 92.0313 62.4296 86.9938 63.4531 80.4063C63.3507 80.3094 63.3507 80.3094 63.2484 80.2126L55.0609 68.4907C53.9351 66.9407 55.2656 65.1 57.4148 65.1H73.7898C75.8367 65.1 77.1671 66.9407 76.1437 68.4907L67.9562 80.2126C67.9562 80.3094 67.8539 80.3094 67.7515 80.4063C68.7749 86.9938 74.6085 92.0313 81.7726 92.0313C89.5507 92.0313 95.896 86.025 95.896 78.6625V73.0438C95.896 71.9782 96.7148 71.1063 97.9429 71.1063C99.171 71.1063 99.9898 71.8813 99.9898 73.0438V78.6625Z" fill="#23C28D"/>
</svg>
