<svg width="23" height="35" viewBox="0 0 23 35" fill="none" xmlns="http://www.w3.org/2000/svg">
<path d="M18.1111 22.9444H15.7778V24.1111H18.1111V22.9444Z" fill="black"/>
<path d="M18.1111 11.2778H15.7778V12.4445H18.1111V11.2778Z" fill="black"/>
<path d="M22.1944 11.4724V9.1389C22.1944 8.38845 21.5837 7.77779 20.8333 7.77779H15.1944V5.05559H16.9444V3.8889H14.0277V0H8.97211V3.8889H6.05542V5.05559H7.80542V7.77779H2.16652C1.41607 7.77779 0.80542 8.38845 0.80542 9.1389V35H22.1943V13.4169H21.0276V26.4444H15.7776V27.6111H21.0276V29.5555H1.97218V22.7402L4.30549 21.7031V23.1388C4.30549 23.7338 4.7596 25.2777 6.83328 25.2777H9.36107V18.0833H8.19438V24.1111H6.83328C6.26036 24.1111 5.86142 23.9524 5.64759 23.6396C5.48893 23.4075 5.47334 23.1562 5.47218 23.1326V15.5645C5.67698 15.3152 6.13984 14.7837 6.77155 14.2517C7.53998 13.6047 8.71419 12.8334 9.94438 12.8334C12.1702 12.8334 12.851 15.3951 12.8784 15.5026L12.989 15.9445H17.9166V17.3056C17.9166 18.0532 17.6215 18.6355 17.0397 19.036C16.6436 19.3087 16.2326 19.4165 16.1084 19.4444H12.0833V27.4166H13.25V20.611H16.2149L16.2625 20.6031C17.2381 20.4405 19.0833 19.542 19.0833 17.3055V14.7777H13.8676C13.7428 14.4426 13.5287 13.9589 13.1959 13.4749C12.3826 12.2918 11.2583 11.6666 9.94438 11.6666C6.96474 11.6666 4.52451 14.8745 4.42218 15.011L4.30549 15.1666V20.4263L1.97218 21.4633V9.1389C1.97218 9.03349 2.06125 8.94448 2.16659 8.94448H11.8888V7.77779H8.97211V5.05559H14.0277V8.94448H20.8333C20.9387 8.94448 21.0277 9.03355 21.0277 9.1389V11.4724H22.1944ZM21.0278 30.7222V33.8333H1.97218V30.7222H21.0278ZM12.8611 3.8889H10.1389V1.16669H12.8611V3.8889Z" fill="black"/>
</svg>
