<svg width="35" height="25" viewBox="0 0 35 25" fill="none" xmlns="http://www.w3.org/2000/svg">
<path d="M34.9848 20.0068L32.4373 8.8643C32.432 8.84126 32.4252 8.81894 32.4175 8.79718C32.2236 8.0924 31.2897 7.55986 29.4696 7.11176C29.1234 5.29295 27.5222 3.91329 25.6041 3.91329C25.4817 3.91329 25.3591 3.91916 25.2366 3.93068C24.5678 2.63969 23.2196 1.80231 21.7399 1.80231C21.2883 1.80231 20.8397 1.88052 20.417 2.03108C19.7857 1.05008 18.6969 0.442688 17.5001 0.442688C16.3032 0.442688 15.2145 1.05001 14.5832 2.03108C14.1604 1.88052 13.7118 1.80231 13.2602 1.80231C11.7805 1.80231 10.4323 2.63976 9.76356 3.93068C9.64105 3.91909 9.5184 3.91329 9.39603 3.91329C7.4779 3.91329 5.87677 5.29295 5.53057 7.11176C3.66796 7.57038 2.7329 8.11716 2.56975 8.8467C2.56732 8.85558 2.56431 8.86416 2.56231 8.87325L0.0153136 20.0067C0.00515224 20.0512 0 20.0967 0 20.1423C0 21.3081 1.82031 22.3476 5.41021 23.2321C8.87909 24.0867 13.1727 24.5574 17.5 24.5574C21.8274 24.5574 26.1209 24.0867 29.5898 23.2321C33.1798 22.3476 35 21.3081 35 20.1424C35 20.0968 34.9949 20.0513 34.9848 20.0068ZM29.5033 8.37713C30.661 8.69135 31.0656 8.96756 31.1958 9.08678C31.0461 9.22417 30.5332 9.56973 28.9383 9.93898C29.2336 9.46797 29.4277 8.93644 29.5033 8.37713ZM9.39596 5.12972C9.59626 5.12972 9.79855 5.15248 9.99727 5.19727C10.2962 5.26482 10.5986 5.09931 10.703 4.81121C11.0917 3.73905 12.1193 3.01866 13.2601 3.01866C13.7157 3.01866 14.1664 3.13352 14.5633 3.35084C14.7148 3.4337 14.8943 3.44837 15.0573 3.39106C15.2201 3.33374 15.351 3.20987 15.4172 3.05036C15.7678 2.20511 16.5854 1.65905 17.5001 1.65905C18.4147 1.65905 19.2322 2.20518 19.5829 3.05036C19.6491 3.20987 19.7799 3.33374 19.9428 3.39106C20.1057 3.44837 20.2854 3.4337 20.4368 3.35084C20.8337 3.13352 21.2844 3.01866 21.7399 3.01866C22.8808 3.01866 23.9084 3.73905 24.2971 4.81121C24.4015 5.09924 24.7039 5.26497 25.0028 5.19727C25.2015 5.15248 25.4038 5.12972 25.6041 5.12972C27.1035 5.12972 28.2826 6.35016 28.3233 7.84896C28.3515 8.88634 27.6115 9.79772 26.8902 10.3192C24.298 10.7082 20.975 10.9219 17.5001 10.9219C14.1114 10.9219 10.8674 10.7186 8.30455 10.3478C7.34709 9.90126 6.6768 8.90574 6.6768 7.84896C6.67673 6.34958 7.89659 5.12972 9.39596 5.12972ZM5.49651 8.3772C5.57264 8.93823 5.76857 9.46976 6.06297 9.93926C4.4672 9.56995 3.95398 9.22425 3.80428 9.08678C3.93445 8.96756 4.3389 8.69142 5.49651 8.3772ZM29.0288 22.1162C25.6979 22.906 21.6035 23.3409 17.5001 23.3409C13.3967 23.3409 9.30229 22.906 5.97123 22.1162C2.68997 21.3382 1.39096 20.4895 1.22831 20.1597L3.47611 10.3336C3.70668 10.463 3.92414 10.5506 4.05202 10.602C4.81491 10.9092 5.89158 11.1824 7.25206 11.4141C9.99484 11.8812 13.6342 12.1384 17.5001 12.1384C21.3659 12.1384 25.0053 11.8812 27.748 11.4141C29.1085 11.1824 30.1852 10.9092 30.9481 10.602C31.0761 10.5504 31.2941 10.4627 31.5252 10.333L33.7718 20.1596C33.6093 20.4893 32.3102 21.3382 29.0288 22.1162Z" fill="black"/>
<path d="M24.8993 12.6235C23.4859 12.6235 22.3095 13.6576 22.0868 15.0088H12.9132C12.6905 13.6575 11.514 12.6235 10.1006 12.6235C8.52893 12.6235 7.25024 13.9022 7.25024 15.4739C7.25024 16.1008 7.45512 16.7012 7.82572 17.1913C7.45512 17.6814 7.25024 18.2818 7.25024 18.9087C7.25024 20.4805 8.52893 21.7591 10.1006 21.7591C11.514 21.7591 12.6904 20.725 12.9132 19.3739H22.0868C22.3094 20.7251 23.4859 21.7591 24.8993 21.7591C26.471 21.7591 27.7497 20.4805 27.7497 18.9087C27.7497 18.2818 27.5448 17.6814 27.1742 17.1913C27.5448 16.7012 27.7497 16.1008 27.7497 15.4739C27.7497 13.9022 26.471 12.6235 24.8993 12.6235ZM25.9491 17.6572C26.3203 17.9689 26.5332 18.4251 26.5332 18.9088C26.5332 19.8097 25.8002 20.5427 24.8993 20.5427C23.9983 20.5427 23.2653 19.8097 23.2653 18.9088C23.2653 18.8737 23.2668 18.8388 23.269 18.8043C23.2796 18.6366 23.2205 18.4719 23.1055 18.3495C22.9905 18.227 22.83 18.1575 22.6619 18.1575H12.338C12.17 18.1575 12.0095 18.227 11.8945 18.3495C11.7795 18.472 11.7203 18.6366 11.731 18.8043C11.7332 18.8388 11.7346 18.8737 11.7346 18.9088C11.7346 19.8097 11.0016 20.5427 10.1006 20.5427C9.19972 20.5427 8.46674 19.8097 8.46674 18.9088C8.46674 18.4251 8.67963 17.9689 9.05088 17.6572C9.18849 17.5416 9.26799 17.3711 9.26799 17.1914C9.26799 17.0117 9.18856 16.8412 9.05088 16.7256C8.67963 16.4139 8.46674 15.9577 8.46674 15.474C8.46674 14.5731 9.19972 13.8401 10.1006 13.8401C11.0016 13.8401 11.7346 14.5731 11.7346 15.474C11.7346 15.5091 11.7332 15.544 11.731 15.5785C11.7203 15.7462 11.7795 15.9108 11.8945 16.0333C12.0094 16.1558 12.17 16.2253 12.338 16.2253H22.6619C22.83 16.2253 22.9905 16.1558 23.1055 16.0333C23.2205 15.9108 23.2796 15.7462 23.269 15.5785C23.2668 15.544 23.2653 15.5091 23.2653 15.474C23.2653 14.5731 23.9983 13.8401 24.8993 13.8401C25.8002 13.8401 26.5332 14.5731 26.5332 15.474C26.5332 15.9576 26.3203 16.4138 25.9491 16.7256C25.8115 16.8412 25.732 17.0117 25.732 17.1914C25.732 17.3711 25.8115 17.5416 25.9491 17.6572Z" fill="black"/>
</svg>
