<svg width="29" height="35" viewBox="0 0 29 35" fill="none" xmlns="http://www.w3.org/2000/svg">
<path d="M20.2333 8.83138C20.2333 9.15782 20.2107 9.48426 20.1693 9.80698C20.1881 9.67715 20.2069 9.54361 20.222 9.41378C20.1316 10.0592 19.9583 10.6861 19.7058 11.2871C19.7548 11.1684 19.8075 11.0497 19.8565 10.931C19.6041 11.5171 19.28 12.0661 18.8844 12.5706L19.1218 12.2701C18.7299 12.7672 18.274 13.216 17.7691 13.6018L18.0743 13.3681C17.5619 13.7539 17.0042 14.0766 16.4089 14.3252C16.5295 14.277 16.65 14.225 16.7706 14.1768C16.1602 14.4253 15.5234 14.596 14.8678 14.685C14.9997 14.6665 15.1353 14.6479 15.2672 14.6331C14.6078 14.7184 13.9447 14.7184 13.2853 14.6331C13.4172 14.6516 13.5528 14.6702 13.6847 14.685C13.0291 14.596 12.3923 14.4253 11.7819 14.1768C11.9025 14.225 12.0231 14.277 12.1436 14.3252C11.5483 14.0766 10.9907 13.7576 10.4782 13.3681L10.7834 13.6018C10.2785 13.216 9.82261 12.7672 9.43075 12.2701L9.66813 12.5706C9.27627 12.0661 8.94846 11.5171 8.69601 10.931C8.74499 11.0497 8.79774 11.1684 8.84673 11.2871C8.59428 10.6861 8.42096 10.0592 8.33053 9.41378C8.34937 9.54361 8.36821 9.67715 8.38328 9.80698C8.29662 9.15782 8.29662 8.50494 8.38328 7.85578C8.36444 7.98561 8.3456 8.11915 8.33053 8.24899C8.42096 7.60353 8.59428 6.97662 8.84673 6.37568C8.79774 6.49438 8.74499 6.61309 8.69601 6.73179C8.94846 6.14569 9.2725 5.59668 9.66813 5.09218L9.43075 5.39265C9.82261 4.89558 10.2785 4.44672 10.7834 4.06093L10.4782 4.29463C10.9907 3.90884 11.5483 3.58612 12.1436 3.33758C12.0231 3.3858 11.9025 3.43773 11.7819 3.48596C12.3923 3.23742 13.0291 3.06678 13.6847 2.97775C13.5528 2.9963 13.4172 3.01485 13.2853 3.02969C13.9447 2.94437 14.6078 2.94437 15.2672 3.02969C15.1353 3.01114 14.9997 2.99259 14.8678 2.97775C15.5234 3.06678 16.1602 3.23742 16.7706 3.48596C16.65 3.43773 16.5295 3.3858 16.4089 3.33758C17.0042 3.58612 17.5619 3.90513 18.0743 4.29463L17.7691 4.06093C18.274 4.44672 18.7299 4.89558 19.1218 5.39265L18.8844 5.09218C19.2763 5.59668 19.6041 6.14569 19.8565 6.73179C19.8075 6.61309 19.7548 6.49438 19.7058 6.37568C19.9583 6.97662 20.1316 7.60353 20.222 8.24899C20.2032 8.11915 20.1843 7.98561 20.1693 7.85578C20.2107 8.1785 20.2295 8.50494 20.2333 8.83138C20.2371 9.60667 20.9228 10.3523 21.7405 10.3152C22.5543 10.2781 23.2514 9.66231 23.2476 8.83138C23.2401 7.05452 22.6975 5.23685 21.635 3.79014C21.3486 3.40064 21.0434 3.01856 20.7043 2.67357C20.3614 2.32488 19.9846 2.02441 19.5928 1.73135C18.8806 1.19718 18.0856 0.803973 17.2416 0.499793C13.8392 -0.728059 9.73595 0.36625 7.43377 3.12613C7.11726 3.50451 6.81583 3.89772 6.55961 4.3206C6.3034 4.73978 6.1037 5.18492 5.91907 5.63748C5.57243 6.47583 5.39533 7.36612 5.32374 8.26753C5.18433 10.0333 5.65155 11.8769 6.58599 13.3904C7.48652 14.8519 8.84673 16.1058 10.4368 16.8143C10.904 17.022 11.3825 17.2149 11.8799 17.3522C12.3735 17.4857 12.8746 17.5599 13.3833 17.6192C14.3102 17.7268 15.2559 17.6526 16.1715 17.4709C19.6493 16.7735 22.5619 13.8244 23.1007 10.3634C23.1798 9.85892 23.2401 9.35442 23.2401 8.84251C23.2439 8.06722 22.543 7.3216 21.7329 7.3587C20.9191 7.38467 20.2333 8.00045 20.2333 8.83138ZM25.2333 32.027H5.90023C5.04492 32.027 4.18961 32.0344 3.33429 32.027C3.2401 32.027 3.1459 32.0196 3.05547 32.0085C3.18735 32.027 3.32299 32.0456 3.45487 32.0604C3.30415 32.0382 3.16097 31.9973 3.02156 31.9417C3.14213 31.9899 3.2627 32.0419 3.38328 32.0901C3.23256 32.027 3.09315 31.9454 2.96127 31.8453L3.26647 32.079C3.15344 31.9862 3.04793 31.8861 2.9575 31.7748L3.19488 32.0752C3.09315 31.9454 3.01402 31.8082 2.9462 31.6598C2.99518 31.7785 3.04793 31.8972 3.09692 32.0159C3.0404 31.8786 3.00272 31.734 2.97634 31.5893C2.99518 31.7191 3.01402 31.8527 3.02909 31.9825C2.96881 31.5337 3.01025 31.0588 3.01025 30.6063V29.0186C3.01025 28.6217 3.03286 28.2285 3.08561 27.8353C3.06677 27.9651 3.04793 28.0986 3.03286 28.2285C3.13836 27.468 3.34183 26.7224 3.64703 26.0139C3.59805 26.1326 3.5453 26.2513 3.49631 26.37C3.79021 25.6949 4.167 25.0605 4.62292 24.4781L4.38554 24.7786C4.84145 24.2036 5.36519 23.6843 5.95298 23.2355L5.64778 23.4692C6.23934 23.0203 6.88365 22.6494 7.56941 22.36C7.44884 22.4082 7.32827 22.4602 7.20769 22.5084C7.92736 22.2116 8.68094 22.0076 9.45713 21.9037C9.32525 21.9223 9.18961 21.9408 9.05773 21.9557C9.61538 21.8852 10.1693 21.8815 10.7307 21.8815H17.6259C18.2476 21.8815 18.8656 21.8778 19.4873 21.9557C19.3554 21.9371 19.2197 21.9186 19.0879 21.9037C19.8603 22.0076 20.6176 22.2079 21.3373 22.5084C21.2167 22.4602 21.0962 22.4082 20.9756 22.36C21.6613 22.6494 22.3057 23.0203 22.8972 23.4692L22.592 23.2355C23.176 23.6843 23.7035 24.1999 24.1595 24.7786L23.9221 24.4781C24.378 25.0605 24.7548 25.6949 25.0487 26.37C24.9997 26.2513 24.947 26.1326 24.898 26.0139C25.1994 26.7224 25.4066 27.4643 25.5121 28.2285C25.4933 28.0986 25.4745 27.9651 25.4594 27.8353C25.531 28.3954 25.5347 28.9518 25.5347 29.5157V31.3519C25.5347 31.5633 25.5423 31.7748 25.5159 31.9825C25.5347 31.8527 25.5536 31.7191 25.5687 31.5893C25.546 31.7377 25.5046 31.8786 25.4481 32.0159C25.4971 31.8972 25.5498 31.7785 25.5988 31.6598C25.5347 31.8082 25.4519 31.9454 25.3501 32.0752L25.5875 31.7748C25.4933 31.8861 25.3916 31.9899 25.2785 32.079L25.5837 31.8453C25.4518 31.9454 25.3124 32.0233 25.1617 32.0901C25.2823 32.0419 25.4029 31.9899 25.5234 31.9417C25.384 31.9973 25.2371 32.0344 25.0901 32.0604C25.222 32.0419 25.3577 32.0233 25.4895 32.0085C25.4066 32.0196 25.32 32.0233 25.2333 32.027C24.8452 32.0307 24.4458 32.1902 24.167 32.461C23.907 32.717 23.7073 33.1399 23.7262 33.5108C23.7638 34.3047 24.3893 35.0058 25.2333 34.9946C26.699 34.9724 27.9876 34.0302 28.4172 32.6465C28.5867 32.0975 28.5491 31.5077 28.5491 30.9438C28.5491 29.6529 28.5905 28.3731 28.3644 27.0934C28.0329 25.2201 27.0758 23.458 25.7646 22.0744C24.4534 20.6907 22.69 19.6743 20.8249 19.2218C19.7548 18.9621 18.6772 18.9213 17.5845 18.9213H10.9002C9.78117 18.9213 8.66964 18.9732 7.58071 19.2588C5.73068 19.7411 3.98991 20.7686 2.70505 22.1634C1.4089 23.5693 0.470692 25.335 0.165493 27.2195C-0.0379737 28.4844 0.00347302 29.7531 0.00347302 31.0292C0.00347302 31.6153 -0.0304379 32.2273 0.184332 32.7875C0.463157 33.5071 0.907768 34.0747 1.55961 34.5013C2.06828 34.8314 2.71259 34.9909 3.31545 34.9984C3.60935 35.0021 3.90325 34.9984 4.19714 34.9984H25.2371C26.0246 34.9984 26.7819 34.3158 26.7442 33.5145C26.7066 32.7059 26.0811 32.027 25.2333 32.027Z" fill="#C22358"/>
</svg>
