<svg width="35" height="35" viewBox="0 0 35 35" fill="none" xmlns="http://www.w3.org/2000/svg">
<path d="M6.54954 0.764099C6.35654 0.764118 6.17145 0.840796 6.03498 0.977267C5.89851 1.11374 5.82183 1.29883 5.82181 1.49183V4.0275L1.03189 7.44866C0.937673 7.51611 0.860918 7.60508 0.808014 7.70817C0.755109 7.81126 0.727583 7.92549 0.727726 8.04136V10.9523C0.727746 11.1453 0.804423 11.3304 0.940894 11.4668C1.07736 11.6033 1.26245 11.68 1.45545 11.68H17.4654C17.6584 11.68 17.8435 11.6033 17.98 11.4668C18.1165 11.3304 18.1931 11.1453 18.1932 10.9523V8.04136C18.1933 7.92549 18.1658 7.81126 18.1129 7.70817C18.06 7.60508 17.9832 7.51611 17.889 7.44866L13.0991 4.02892V1.49183C13.0991 1.29883 13.0224 1.11374 12.8859 0.977267C12.7494 0.840796 12.5643 0.764118 12.3713 0.764099H6.54954ZM7.27726 2.21955H11.6436V4.40273C11.6435 4.5186 11.671 4.63284 11.7239 4.73593C11.7768 4.83902 11.8536 4.92798 11.9478 4.99543L16.7377 8.41517V10.2245H2.18318V8.41517L6.9731 4.99543C7.06732 4.92798 7.14407 4.83902 7.19698 4.73593C7.24988 4.63284 7.27741 4.5186 7.27726 4.40273V2.21955ZM4.00249 16.0464C3.52639 16.0464 3.12762 16.3506 2.97771 16.7741H0.727726C0.534727 16.7741 0.349638 16.8508 0.213167 16.9872C0.0766964 17.1237 1.9297e-05 17.3088 0 17.5018L0 33.5118C1.9297e-05 33.7048 0.0766964 33.8899 0.213167 34.0263C0.349638 34.1628 0.534727 34.2395 0.727726 34.2395H34.2728C34.4658 34.2395 34.6509 34.1628 34.7873 34.0263C34.9238 33.8899 35.0005 33.7048 35.0005 33.5118V17.5018C35.0005 17.3088 34.9238 17.1237 34.7873 16.9872C34.6509 16.8508 34.4658 16.7741 34.2728 16.7741H15.9432C15.7933 16.3506 15.3945 16.0464 14.9184 16.0464H4.00249ZM1.45545 18.2295H4.00249H14.9184H17.5351V32.7841H1.45545V18.2295ZM18.9905 18.2295H33.5451V22.5959H18.9905V18.2295ZM3.63863 19.685C3.44563 19.685 3.26054 19.7617 3.12407 19.8982C2.9876 20.0346 2.91092 20.2197 2.91091 20.4127V30.6009C2.91092 30.7939 2.9876 30.979 3.12407 31.1154C3.26054 31.2519 3.44563 31.3286 3.63863 31.3286H15.2823C15.4753 31.3286 15.6603 31.2519 15.7968 31.1154C15.9333 30.979 16.01 30.7939 16.01 30.6009V20.4127C16.01 20.2197 15.9333 20.0346 15.7968 19.8982C15.6603 19.7617 15.4753 19.685 15.2823 19.685H3.63863ZM21.8318 19.685C21.7354 19.6836 21.6396 19.7014 21.5501 19.7374C21.4606 19.7734 21.3792 19.8267 21.3105 19.8945C21.2418 19.9622 21.1873 20.0428 21.1501 20.1318C21.1129 20.2208 21.0937 20.3163 21.0937 20.4127C21.0937 20.5092 21.1129 20.6046 21.1501 20.6936C21.1873 20.7826 21.2418 20.8633 21.3105 20.931C21.3792 20.9987 21.4606 21.0521 21.5501 21.088C21.6396 21.124 21.7354 21.1418 21.8318 21.1404H30.5645C30.6609 21.1418 30.7567 21.124 30.8462 21.088C30.9357 21.0521 31.0171 20.9987 31.0858 20.931C31.1545 20.8633 31.209 20.7826 31.2462 20.6936C31.2834 20.6046 31.3026 20.5092 31.3026 20.4127C31.3026 20.3163 31.2834 20.2208 31.2462 20.1318C31.209 20.0428 31.1545 19.9622 31.0858 19.8945C31.0171 19.8267 30.9357 19.7734 30.8462 19.7374C30.7567 19.7014 30.6609 19.6836 30.5645 19.685H21.8318ZM4.36636 21.1404H14.5545V29.8732H4.36636V21.1404ZM18.9905 24.0513H33.5451V32.7841H18.9905V24.0513ZM21.8204 26.2246C21.6277 26.2276 21.444 26.307 21.3097 26.4453C21.1754 26.5836 21.1014 26.7695 21.1041 26.9622V30.6009C21.1027 30.6973 21.1205 30.7931 21.1565 30.8825C21.1924 30.972 21.2458 31.0535 21.3135 31.1222C21.3812 31.1908 21.4619 31.2454 21.5509 31.2826C21.6399 31.3198 21.7353 31.339 21.8318 31.339C21.9282 31.339 22.0237 31.3198 22.1127 31.2826C22.2017 31.2454 22.2823 31.1908 22.35 31.1222C22.4178 31.0535 22.4711 30.972 22.5071 30.8825C22.5431 30.7931 22.5609 30.6973 22.5595 30.6009V26.9622C22.5609 26.8649 22.5426 26.7682 22.5059 26.6781C22.4693 26.5879 22.4148 26.5059 22.3459 26.4372C22.277 26.3684 22.195 26.3141 22.1047 26.2776C22.0145 26.2411 21.9178 26.2231 21.8204 26.2246Z" fill="black"/>
</svg>
