<svg width="44" height="37" viewBox="0 0 44 37" fill="none" xmlns="http://www.w3.org/2000/svg">
<path d="M3.05882 6.14706L7.17647 10.2647L16.4412 1M40.1176 27.7647V9.64706C40.1176 7.34097 40.1176 6.18791 39.6688 5.3071C39.2741 4.5323 38.6442 3.90239 37.8694 3.50763C36.9886 3.05882 35.8355 3.05882 33.5294 3.05882H24.6765M3.05882 27.7647V18.5M42.1765 27.7647V29.4118C42.1765 31.7179 42.1765 32.871 41.7276 33.7518C41.333 34.5265 40.703 35.1565 39.9282 35.5512C39.0475 36 37.8943 36 35.5882 36H7.58824C5.28215 36 4.12908 36 3.24828 35.5512C2.47348 35.1565 1.84356 34.5265 1.4488 33.7518C1 32.871 1 31.7179 1 29.4118V27.7647H14.0473C14.5509 27.7647 14.8026 27.7647 15.0396 27.8215C15.2497 27.872 15.4505 27.9551 15.6347 28.0682C15.8425 28.1954 16.0205 28.3735 16.3766 28.7295L16.5058 28.8588C16.8618 29.2147 17.0399 29.3928 17.2477 29.5201C17.4319 29.6331 17.6326 29.7163 17.8428 29.7667C18.0798 29.8235 18.3316 29.8235 18.835 29.8235H24.3415C24.8449 29.8235 25.0967 29.8235 25.3336 29.7667C25.5439 29.7163 25.7446 29.6331 25.9289 29.5201C26.1366 29.3928 26.3147 29.2147 26.6706 28.8588L26.7999 28.7295C27.1559 28.3735 27.334 28.1954 27.5417 28.0682C27.726 27.9551 27.9267 27.872 28.1369 27.8215C28.3739 27.7647 28.6257 27.7647 29.1291 27.7647H42.1765Z" stroke="black" stroke-width="2" stroke-linecap="round" stroke-linejoin="round"/>
</svg>
