<svg width="35" height="26" viewBox="0 0 35 26" fill="none" xmlns="http://www.w3.org/2000/svg">
<path d="M2.1 0C0.948828 0 0 0.948828 0 2.1V21.7C0 22.8512 0.948828 23.8 2.1 23.8H3.5V24.5C3.5 25.2656 4.13438 25.9 4.9 25.9H7C7.76562 25.9 8.4 25.2656 8.4 24.5V23.8H26.6V24.5C26.6 25.2656 27.2344 25.9 28 25.9H30.1C30.8656 25.9 31.5 25.2656 31.5 24.5V23.8H32.9C34.0512 23.8 35 22.8512 35 21.7V2.1C35 0.948828 34.0512 0 32.9 0H2.1ZM2.1 1.4H32.9C33.2938 1.4 33.6 1.70625 33.6 2.1V21.7C33.6 22.0938 33.2938 22.4 32.9 22.4H27.4312C27.3383 22.3809 27.2398 22.3809 27.1469 22.4H4.33125C4.23828 22.3809 4.13984 22.3809 4.04688 22.4H2.1C1.70625 22.4 1.4 22.0938 1.4 21.7V2.1C1.4 1.70625 1.70625 1.4 2.1 1.4ZM3.5 3.5V20.3H28V3.5H3.5ZM4.9 4.9H26.6V18.9H4.9V4.9ZM30.8 5.6C30.0262 5.6 29.4 6.22617 29.4 7C29.4 7.77383 30.0262 8.4 30.8 8.4C31.5738 8.4 32.2 7.77383 32.2 7C32.2 6.22617 31.5738 5.6 30.8 5.6ZM23.9094 8.35625C23.7699 8.35352 23.6332 8.3918 23.5156 8.46562C23.5156 8.46562 20.2754 9.8 18.2875 9.8C17.2949 9.8 16.625 9.51562 15.8156 9.16562C15.0062 8.81563 14.0465 8.4 12.7531 8.4C10.1664 8.4 7.39375 9.86562 7.39375 9.86562C7.04375 10.0352 6.89609 10.4563 7.06562 10.8062C7.23516 11.1562 7.65625 11.3039 8.00625 11.1344C8.00625 11.1344 10.7324 9.8 12.7531 9.8C13.7648 9.8 14.4402 10.0844 15.2469 10.4344C16.0535 10.7844 17.0078 11.2 18.2875 11.2C20.8496 11.2 24.0844 9.73438 24.0844 9.73438C24.4262 9.64687 24.6504 9.31875 24.6039 8.96875C24.5602 8.61875 24.2621 8.35625 23.9094 8.35625ZM30.8 10.5C30.0262 10.5 29.4 11.1262 29.4 11.9C29.4 12.6738 30.0262 13.3 30.8 13.3C31.5738 13.3 32.2 12.6738 32.2 11.9C32.2 11.1262 31.5738 10.5 30.8 10.5ZM23.9094 12.5562C23.7699 12.5535 23.6332 12.5918 23.5156 12.6656C23.5156 12.6656 20.2754 14 18.2875 14C17.2949 14 16.625 13.7156 15.8156 13.3656C15.0062 13.0156 14.0465 12.6 12.7531 12.6C10.1664 12.6 7.39375 14.0656 7.39375 14.0656C7.04375 14.2352 6.89609 14.6562 7.06562 15.0062C7.23516 15.3562 7.65625 15.5039 8.00625 15.3344C8.00625 15.3344 10.7324 14 12.7531 14C13.7648 14 14.4402 14.2844 15.2469 14.6344C16.0535 14.9844 17.0078 15.4 18.2875 15.4C20.8496 15.4 24.0844 13.9344 24.0844 13.9344C24.4262 13.8469 24.6504 13.5188 24.6039 13.1687C24.5602 12.8187 24.2621 12.5562 23.9094 12.5562ZM30.8 15.4C30.0262 15.4 29.4 16.0262 29.4 16.8C29.4 17.5738 30.0262 18.2 30.8 18.2C31.5738 18.2 32.2 17.5738 32.2 16.8C32.2 16.0262 31.5738 15.4 30.8 15.4ZM4.9 23.8H7V24.5H4.9V23.8ZM28 23.8H30.1V24.5H28V23.8Z" fill="black"/>
</svg>
