<svg width="35" height="35" viewBox="0 0 35 35" fill="none" xmlns="http://www.w3.org/2000/svg">
<path fill-rule="evenodd" clip-rule="evenodd" d="M15.9091 7.95454C13.2732 7.95454 11.1364 10.0914 11.1364 12.7273V25.4545C11.1364 26.3332 11.8486 27.0455 12.7273 27.0455C13.6059 27.0455 14.3182 26.3332 14.3182 25.4545V20.6818H17.5072C17.8419 20.6797 18.1777 20.6405 18.5074 20.5856C19.0589 20.4936 19.8188 20.3067 20.5978 19.9172C21.3833 19.5244 22.2169 18.9105 22.8507 17.9598C23.4912 16.999 23.8636 15.7896 23.8636 14.3181C23.8636 12.8466 23.4912 11.6371 22.8507 10.6765C22.2169 9.72573 21.3831 9.11177 20.5978 8.7191C19.8188 8.32957 19.0589 8.14272 18.5074 8.05078C18.1758 7.99551 17.8368 7.9547 17.5 7.95454H15.9091ZM14.3182 17.5V12.7273C14.3182 11.8486 15.0304 11.1364 15.9091 11.1364L17.5006 11.1366C18.0732 11.1557 18.6642 11.3097 19.1749 11.565C19.5828 11.7689 19.9422 12.0499 20.2033 12.4414C20.4577 12.8231 20.6818 13.4034 20.6818 14.3181C20.6818 15.233 20.4577 15.8132 20.2033 16.1948C19.9422 16.5865 19.5827 16.8673 19.1749 17.0712C18.6642 17.3266 18.0732 17.4806 17.5005 17.4997L14.3182 17.5Z" fill="#0F0F0F"/>
<path fill-rule="evenodd" clip-rule="evenodd" d="M30.2273 0C32.8633 0 35 2.13683 35 4.77273V30.2273C35 32.8633 32.8633 35 30.2273 35H4.77273C2.13683 35 0 32.8633 0 30.2273V4.77273C0 2.13683 2.13683 0 4.77273 0H30.2273ZM30.2273 3.18182C31.1059 3.18182 31.8182 3.8941 31.8182 4.77273V30.2273C31.8182 31.1059 31.1059 31.8182 30.2273 31.8182H4.77273C3.8941 31.8182 3.18182 31.1059 3.18182 30.2273V4.77273C3.18182 3.8941 3.8941 3.18182 4.77273 3.18182H30.2273Z" fill="#0F0F0F"/>
</svg>
