<svg width="21" height="35" viewBox="0 0 21 35" fill="none" xmlns="http://www.w3.org/2000/svg">
<path d="M5.15372 16.0502H15.9687C16.0599 16.0502 16.1368 16.1243 16.1368 16.2183L14.8437 29.5939C14.8351 29.6794 14.7639 29.7449 14.6785 29.7449H6.44685C6.3557 29.7449 6.28165 29.6708 6.2788 29.5797L4.99136 16.2354C4.98282 16.1442 5.05118 16.0616 5.14232 16.0531L5.15372 16.0502ZM5.20783 1.50391C4.79198 1.50391 4.45588 1.16781 4.45588 0.751953C4.45588 0.3361 4.79198 0 5.20783 0C9.07584 0 12.9438 0 16.809 0C17.0169 0 17.2049 0.0854492 17.3416 0.21932L19.2756 2.15332C19.569 2.4467 19.569 2.92236 19.2756 3.21574C18.9822 3.50911 18.5066 3.50911 18.2132 3.21574L16.4985 1.50106H13.898V5.52572C14.0689 5.53141 14.2256 5.60262 14.3367 5.71655C14.4534 5.83618 14.5275 5.99569 14.5275 6.17513V9.61588C14.5959 9.61873 14.6614 9.62158 14.7269 9.62728C14.8494 9.63582 14.9775 9.65006 15.1086 9.66715C15.8178 9.76115 16.5071 9.97192 17.1394 10.2795C17.7831 10.5929 18.3727 11.0059 18.8712 11.4958C19.3896 12.0056 19.8111 12.6009 20.0988 13.2532C20.3722 13.8741 20.526 14.5463 20.526 15.2498C20.526 15.3495 20.5232 15.4578 20.5146 15.5717C20.5089 15.6742 20.4975 15.7825 20.4833 15.8936C19.5633 22.0203 18.7743 28.3691 17.7062 34.4503C17.6834 34.6069 17.6037 34.7408 17.4926 34.8405C17.3787 34.943 17.2277 35.0028 17.0653 35.0028H3.88052C3.70963 35.0028 3.55012 34.9345 3.43334 34.8234C3.31941 34.7152 3.24535 34.5671 3.23111 34.4019L0.519521 16.5202C0.502431 16.3977 0.491038 16.2809 0.482493 16.167C0.476796 16.0474 0.4711 15.9306 0.4711 15.8195C0.4711 15.0448 0.63915 14.3042 0.941071 13.6235C1.25723 12.9057 1.72151 12.2534 2.29117 11.6951C2.84089 11.154 3.49031 10.6982 4.19669 10.3536C4.89452 10.0146 5.65217 9.78109 6.43546 9.67855L6.44685 9.6757V6.17513C6.44685 5.99853 6.5209 5.83618 6.63768 5.7194C6.75447 5.60262 6.91682 5.52856 7.09626 5.52856H7.17317V1.50391H5.20783ZM12.6049 1.50391H8.47484V5.51717H12.6049V1.50391ZM14.2911 10.909H7.34976C7.21589 10.909 7.08772 10.9119 6.96809 10.9204C6.84561 10.929 6.72313 10.9403 6.60635 10.9574H6.59496C5.95979 11.0429 5.33886 11.2366 4.76635 11.5129C4.18244 11.7977 3.64981 12.1708 3.19978 12.6123C2.74975 13.0595 2.38516 13.5693 2.13451 14.1276C1.90095 14.6545 1.76993 15.2242 1.76993 15.8195C1.76993 15.9135 1.77278 16.0046 1.77847 16.0901V16.0929C1.78417 16.1812 1.79271 16.2695 1.80411 16.3607L4.44449 33.7012H16.4985L19.1987 15.7141C19.2073 15.6401 19.2158 15.566 19.2215 15.4919C19.2272 15.4179 19.2272 15.3353 19.2272 15.247C19.2272 14.7201 19.1104 14.2159 18.9053 13.7516C18.686 13.2589 18.3613 12.806 17.9626 12.4129C17.5638 12.0199 17.0938 11.6895 16.5754 11.436C16.0656 11.1882 15.513 11.0173 14.9433 10.9432C14.838 10.9318 14.7297 10.9204 14.6215 10.9147C14.519 10.9147 14.4079 10.909 14.2911 10.909ZM13.2315 6.82454H7.74568V9.59595H13.2315V6.82454Z" fill="black"/>
</svg>
