<svg width="31" height="35" viewBox="0 0 31 35" fill="none" xmlns="http://www.w3.org/2000/svg">
<path d="M6.18815 30.4199C5.76663 30.4199 5.4248 30.7617 5.4248 31.1833V34.2366C5.4248 34.6582 5.76663 35 6.18815 35C6.60967 35 6.9515 34.6582 6.9515 34.2366V31.1833C6.9515 30.7617 6.60975 30.4199 6.18815 30.4199Z" fill="black"/>
<path d="M12.5493 30.4199C12.1278 30.4199 11.786 30.7617 11.786 31.1833V34.2366C11.786 34.6582 12.1278 35 12.5493 35C12.9709 35 13.3127 34.6582 13.3127 34.2366V31.1833C13.3127 30.7617 12.9709 30.4199 12.5493 30.4199Z" fill="black"/>
<path d="M18.9105 30.4199C18.489 30.4199 18.1472 30.7617 18.1472 31.1833V34.2366C18.1472 34.6582 18.489 35 18.9105 35C19.332 35 19.6738 34.6582 19.6738 34.2366V31.1833C19.6738 30.7617 19.3321 30.4199 18.9105 30.4199Z" fill="black"/>
<path d="M3.00752 24.9238C2.58592 24.9238 2.24417 25.2656 2.24417 25.6872V28.7406C2.24417 29.1621 2.586 29.5039 3.00752 29.5039C3.42904 29.5039 3.77086 29.1621 3.77086 28.7406V25.6872C3.77086 25.2656 3.42911 24.9238 3.00752 24.9238Z" fill="black"/>
<path d="M9.36869 24.9238C8.9471 24.9238 8.60535 25.2656 8.60535 25.6872V28.7406C8.60535 29.1621 8.9471 29.5039 9.36869 29.5039C9.79021 29.5039 10.132 29.1621 10.132 28.7406V25.6872C10.132 25.2656 9.79029 24.9238 9.36869 24.9238Z" fill="black"/>
<path d="M15.73 24.9238C15.3084 24.9238 14.9666 25.2656 14.9666 25.6872V28.7406C14.9666 29.1621 15.3084 29.5039 15.73 29.5039C16.1515 29.5039 16.4933 29.1621 16.4933 28.7406V25.6872C16.4933 25.2656 16.1516 24.9238 15.73 24.9238Z" fill="black"/>
<path d="M22.0911 24.9238C21.6696 24.9238 21.3278 25.2656 21.3278 25.6872V28.7406C21.3278 29.1621 21.6696 29.5039 22.0911 29.5039C22.5127 29.5039 22.8545 29.1621 22.8545 28.7406V25.6872C22.8545 25.2656 22.5127 24.9238 22.0911 24.9238Z" fill="black"/>
<path d="M29.8009 0C29.3794 0 29.0376 0.34175 29.0376 0.763345V1.52669H22.0911C15.9919 1.52669 10.9848 6.28875 10.5905 12.2899H9.89746C9.47594 12.2899 9.13412 12.6316 9.13412 13.0532V15.1128C7.30178 15.6365 5.59799 16.5849 4.18123 17.8764C2.78392 19.1503 1.6918 20.7338 0.997769 22.4811H0.763345C0.341826 22.4811 0 22.8228 0 23.2444C0 23.6659 0.34175 24.0077 0.763345 24.0077H1.52669H23.5719H24.3352C24.7567 24.0077 25.0986 23.6659 25.0986 23.2444C25.0986 22.8228 24.7567 22.4811 24.3352 22.4811H24.1008C23.4068 20.7338 22.3146 19.1502 20.9173 17.8764C19.5006 16.5849 17.7969 15.6365 15.9645 15.1128V13.0532C15.9645 12.6316 15.6226 12.2899 15.2011 12.2899H14.5723C14.9562 8.48 18.1817 5.49609 22.0911 5.49609H29.0376V6.25943C29.0376 6.68095 29.3794 7.02278 29.8009 7.02278C30.2225 7.02278 30.5643 6.68095 30.5643 6.25943V0.763345C30.5643 0.34175 30.2225 0 29.8009 0ZM14.4378 13.8166V14.9616H10.6608V13.8166H14.4378ZM22.4402 22.4811H2.65843C4.03382 19.5301 6.7195 17.2837 9.8938 16.4883H15.2049C18.3791 17.2837 21.0648 19.5301 22.4402 22.4811ZM22.0911 3.9694C17.3394 3.9694 13.4287 7.63689 13.0397 12.2899H12.1202C12.5115 7.13117 16.8341 3.05338 22.0911 3.05338H29.0376V3.9694H22.0911Z" fill="black"/>
</svg>
