<svg width="36" height="34" viewBox="0 0 36 34" fill="none" xmlns="http://www.w3.org/2000/svg">
<path d="M16.4293 3.62074C16.8411 2.69687 17.0471 2.23494 17.3338 2.09269C17.5828 1.9691 17.8753 1.9691 18.1243 2.09269C18.411 2.23494 18.617 2.69687 19.0288 3.62074L22.3089 10.9795C22.4307 11.2526 22.4916 11.3891 22.5858 11.4937C22.6691 11.5862 22.771 11.6602 22.8847 11.7109C23.0133 11.7682 23.162 11.7839 23.4594 11.8152L31.4716 12.6609C32.4775 12.7671 32.9803 12.8201 33.2043 13.0489C33.3987 13.2475 33.4891 13.5257 33.4485 13.8008C33.4019 14.1174 33.0262 14.4559 32.2749 15.1331L26.2898 20.5268C26.0678 20.7269 25.9566 20.827 25.8864 20.9489C25.8241 21.0568 25.7852 21.1765 25.7722 21.3004C25.7574 21.4403 25.7884 21.5866 25.8504 21.8792L27.5221 29.7604C27.732 30.75 27.837 31.2447 27.6886 31.5282C27.5597 31.7747 27.3231 31.9466 27.049 31.993C26.7334 32.0463 26.2953 31.7938 25.4191 31.2884L18.44 27.263C18.181 27.1136 18.0515 27.0391 17.9139 27.0097C17.792 26.9839 17.6661 26.9839 17.5442 27.0097C17.4065 27.0391 17.277 27.1136 17.0181 27.263L10.039 31.2884C9.16284 31.7938 8.72474 32.0463 8.40917 31.993C8.13504 31.9466 7.89839 31.7747 7.76953 31.5282C7.6212 31.2447 7.72613 30.75 7.93601 29.7604L9.60764 21.8792C9.66968 21.5866 9.70071 21.4403 9.68598 21.3004C9.67294 21.1765 9.63404 21.0568 9.57178 20.9489C9.50143 20.827 9.39036 20.7269 9.16824 20.5268L3.18331 15.1331C2.43193 14.4559 2.05623 14.1174 2.00952 13.8008C1.96897 13.5257 2.05935 13.2475 2.25384 13.0489C2.47775 12.8201 2.9807 12.7671 3.98661 12.6609L11.9988 11.8152C12.2961 11.7839 12.4448 11.7682 12.5734 11.7109C12.6871 11.6602 12.789 11.5862 12.8723 11.4937C12.9665 11.3891 13.0274 11.2526 13.1492 10.9795L16.4293 3.62074Z" fill="#23C28D" stroke="#23C28D" stroke-width="4" stroke-linecap="round" stroke-linejoin="round"/>
</svg>
