<svg width="36" height="35" viewBox="0 0 36 35" fill="none" xmlns="http://www.w3.org/2000/svg">
<path d="M8.69999 0C7.18241 0 5.91092 0.382812 5.04686 1.24687C4.1828 2.11094 3.79999 3.38242 3.79999 4.9V5.6H1.69999C1.67811 5.6 1.65624 5.6 1.63436 5.6C1.24881 5.61914 0.948033 5.94727 0.967174 6.33281C0.986314 6.71836 1.31444 7.01914 1.69999 7H3.79999V20.1687C3.78085 20.2617 3.78085 20.3602 3.79999 20.4531V24.3687C3.78085 24.4617 3.78085 24.5602 3.79999 24.6531V28.7C3.79999 29.0855 4.11444 29.4 4.49999 29.4H7.99999V34.3C7.99999 34.6855 8.31444 35 8.69999 35H31.1C31.4855 35 31.8 34.6855 31.8 34.3V7.80937C31.8027 7.77383 31.8027 7.73555 31.8 7.7V7H35.3C35.5515 7.00273 35.7867 6.87148 35.9152 6.65273C36.041 6.43398 36.041 6.16602 35.9152 5.94727C35.7867 5.72852 35.5515 5.59727 35.3 5.6H31.8V4.9C31.8 3.45625 31.3406 2.20664 30.4656 1.33438C29.5906 0.462109 28.3383 0 26.9 0H8.69999ZM8.69999 1.4H26.9C28.0484 1.4 28.9015 1.7418 29.4812 2.31875C29.7957 2.6332 30.0226 3.04336 30.1812 3.52187C29.5715 3.05703 28.8988 2.8 28.3 2.8C27.5945 2.8 26.6512 2.99141 25.9375 3.7625C25.2238 4.53359 24.8 5.77773 24.8 7.7V18.2656C24.1656 18.4023 23.6133 18.7059 23.0937 18.9656C22.3937 19.3156 21.7676 19.6 21.3 19.6C20.8324 19.6 20.2062 19.3156 19.5062 18.9656C18.8062 18.6156 18.0324 18.2 17.1 18.2C16.1676 18.2 15.3937 18.6156 14.6937 18.9656C13.9937 19.3156 13.3676 19.6 12.9 19.6C12.4324 19.6 11.8062 19.3156 11.1062 18.9656C10.4062 18.6156 9.63241 18.2 8.69999 18.2C7.76756 18.2 6.99374 18.6156 6.29374 18.9656C5.89999 19.1625 5.53358 19.3512 5.19999 19.4688V6.43125C5.21913 6.33828 5.21913 6.23984 5.19999 6.14687V4.9C5.19999 3.61758 5.51717 2.78906 6.05311 2.25312C6.58905 1.71719 7.41756 1.4 8.69999 1.4ZM28.3 4.2C28.732 4.2 29.2051 4.32578 29.6125 4.79063C29.7793 4.98203 29.9379 5.25273 30.0719 5.6H26.4844C26.6211 5.18437 26.7879 4.89453 26.9656 4.70312C27.3539 4.28477 27.8187 4.2 28.3 4.2ZM26.2219 7H30.3562C30.3754 7.21602 30.4 7.44844 30.4 7.7C30.4 7.72187 30.4 7.74375 30.4 7.76562V33.6H9.39999V29.4H25.5C25.8855 29.4 26.2 29.0855 26.2 28.7V23.2312C26.2191 23.1383 26.2191 23.0398 26.2 22.9469V19.0312C26.2191 18.9383 26.2191 18.8398 26.2 18.7469V7.7C26.2 7.45117 26.2082 7.21602 26.2219 7ZM8.69999 19.6C9.16756 19.6 9.79374 19.8844 10.4937 20.2344C11.1937 20.5844 11.9676 21 12.9 21C13.8324 21 14.6062 20.5844 15.3062 20.2344C16.0062 19.8844 16.6324 19.6 17.1 19.6C17.5676 19.6 18.1937 19.8844 18.8937 20.2344C19.5937 20.5844 20.3676 21 21.3 21C22.2324 21 23.0062 20.5844 23.7062 20.2344C24.1 20.0375 24.4664 19.8488 24.8 19.7312V22.4656C24.1656 22.6023 23.6133 22.9059 23.0937 23.1656C22.3937 23.5156 21.7676 23.8 21.3 23.8C20.8324 23.8 20.2062 23.5156 19.5062 23.1656C18.8062 22.8156 18.0324 22.4 17.1 22.4C16.1676 22.4 15.3937 22.8156 14.6937 23.1656C13.9937 23.5156 13.3676 23.8 12.9 23.8C12.4324 23.8 11.8062 23.5156 11.1062 23.1656C10.4062 22.8156 9.63241 22.4 8.69999 22.4C7.76756 22.4 6.99374 22.8156 6.29374 23.1656C5.89999 23.3625 5.53358 23.5512 5.19999 23.6687V20.9344C5.83436 20.7977 6.38671 20.4941 6.90624 20.2344C7.60624 19.8844 8.23241 19.6 8.69999 19.6ZM8.69999 23.8C9.16756 23.8 9.79374 24.0844 10.4937 24.4344C11.1937 24.7844 11.9676 25.2 12.9 25.2C13.8324 25.2 14.6062 24.7844 15.3062 24.4344C16.0062 24.0844 16.6324 23.8 17.1 23.8C17.5676 23.8 18.1937 24.0844 18.8937 24.4344C19.5937 24.7844 20.3676 25.2 21.3 25.2C22.2324 25.2 23.0062 24.7844 23.7062 24.4344C24.1 24.2375 24.4664 24.0488 24.8 23.9312V28H5.19999V25.1344C5.83436 24.9977 6.38671 24.6941 6.90624 24.4344C7.60624 24.0844 8.23241 23.8 8.69999 23.8Z" fill="black"/>
</svg>
