<svg width="33" height="30" viewBox="0 0 33 30" fill="none" xmlns="http://www.w3.org/2000/svg">
<path fill-rule="evenodd" clip-rule="evenodd" d="M28.4676 22.1282L28.0732 23.5378L12.8954 14.3261L12.7677 10.2656C12.7677 10.2656 15.9756 12.5395 17.275 13.572C17.5879 13.7896 17.8216 14.103 17.9409 14.4651C18.0602 14.8271 18.0586 15.2181 17.9363 15.5791L24.787 19.8659L25.9037 15.2948L27.4148 17.1743L29.5698 17.2439L30.1179 18.3084H32.2497C32.2497 21.0608 31.2694 22.1804 28.4676 22.1282ZM10.9521 14.5088L14.9401 29.6866C14.9401 29.6866 12.7329 30.6728 12.0774 28.8165C11.4713 27.1024 8.45774 19.2452 8.45774 19.2452L7.25117 19.7905C7.25117 19.7905 4.70462 26.8442 3.89541 28.8368C3.063 30.8845 0.963105 29.6054 0.963105 29.6054L4.83804 15.0164L4.66982 11.1154L3.1326 11.504L2.20738 16.6696C2.20738 16.6696 -0.133246 16.9742 0.0059731 15.0657C0.148093 13.1108 0.388826 9.38383 0.388826 9.38383L5.48193 6.33551C9.08133 6.14408 11.4887 7.20563 11.2102 11.1299C11.129 12.2639 10.9521 14.5088 10.9521 14.5088ZM5.2441 2.73031C4.83514 -0.529743 10.1168 -1.17943 10.1168 2.48377C10.1168 6.19339 5.63855 5.86854 5.2441 2.73031ZM19.3836 20.8868L20.0216 22.4675L22.8437 21.8091L27.6961 24.8778L26.6549 28.6019C26.9826 28.6019 27.3422 29.124 27.3422 29.791H24.2852L24.1634 26.5658L20.8134 26.415L19.3023 28.6077C19.5747 28.6521 19.8194 28.8 19.9853 29.0204C20.1512 29.2411 20.2255 29.517 20.1928 29.791H16.2424L18.4873 20.9042L19.3836 20.8868Z" fill="black"/>
</svg>
