<svg width="47" height="35" viewBox="0 0 47 35" fill="none" xmlns="http://www.w3.org/2000/svg">
<path d="M20.2163 28.9134C20.2163 27.2324 21.5797 25.8689 23.2608 25.8689C24.9418 25.8689 26.3052 27.2324 26.3052 28.9134C26.3052 30.5944 24.9418 31.9557 23.2608 31.9557C21.5797 31.9557 20.2163 30.5944 20.2163 28.9134ZM29.3474 28.9134C29.3474 25.5514 26.6228 22.8266 23.2608 22.8266C19.8987 22.8266 17.174 25.5514 17.174 28.9134C17.174 32.2754 19.8987 35 23.2608 35C26.6228 35 29.3474 32.2754 29.3474 28.9134Z" fill="#3C3C3C"/>
<path d="M35.4998 22.7611C33.2471 18.2854 28.6127 15.2177 23.2607 15.2177C17.9086 15.2177 13.2744 18.2875 11.0217 22.7611L13.3251 25.0644C14.8686 21.0843 18.7343 18.26 23.2607 18.26C27.7872 18.26 31.6529 21.0843 33.1964 25.0644L35.4998 22.7611Z" fill="#3C3C3C"/>
<path d="M41.0593 17.2015C37.2485 11.4218 30.7002 7.60892 23.2608 7.60892C15.8213 7.60892 9.27302 11.4239 5.46222 17.2015L7.66827 19.4054C10.8757 14.157 16.6597 10.6532 23.2608 10.6532C29.864 10.6532 35.648 14.157 38.8554 19.4075L41.0593 17.2015Z" fill="#3C3C3C"/>
<path d="M46.5214 11.7394C41.2562 4.61944 32.7962 0 23.2607 0C13.7253 0 5.2653 4.61944 0 11.7394L2.18063 13.9157C6.87004 7.33575 14.5637 3.04429 23.2607 3.04429C31.9578 3.04429 39.6536 7.33575 44.3429 13.9178L46.5214 11.7394Z" fill="#3C3C3C"/>
</svg>
